<?xml version="1.0" encoding="utf-8"?>
<!-- Svg Vector Icons : http://www.onlinewebfonts.com/icon -->
<!DOCTYPE svg PUBLIC "-//W3C//DTD SVG 1.1//EN" "http://www.w3.org/Graphics/SVG/1.1/DTD/svg11.dtd">
<svg version="1.1" xmlns="http://www.w3.org/2000/svg" xmlns:xlink="http://www.w3.org/1999/xlink" x="0px" y="0px" viewBox="0 0 1000 1000" enable-background="new 0 0 1000 1000" xml:space="preserve">
<metadata> Svg Vector Icons : http://www.onlinewebfonts.com/icon </metadata>
<g><path d="M946.4,486.3L816.2,707.9l-17.4,285.5L545.3,849.5C500.4,926,400.9,952.2,323.1,908c-77.8-44.2-104.5-141.9-59.5-218.4c0,0,0,0,0,0L10,545.7l242.8-157.6l130.1-221.5c89.8-152.9,288.8-205.4,444.4-117C982.9,137.8,1036.2,333.4,946.4,486.3z M355.6,852.6c46.7,26.5,106.4,10.8,133.3-35.1l-169-95.9C292.9,767.5,308.9,826.1,355.6,852.6z M794.8,104.9c-124.5-70.6-283.6-28.7-355.5,93.6L309.2,420.1L127,538.3L746.8,890l13.1-214.1L890,454.4C961.9,332,919.2,175.5,794.8,104.9z"/></g>
</svg>