<?xml version="1.0" encoding="utf-8"?>
<!-- Svg Vector Icons : http://www.onlinewebfonts.com/icon -->
<!DOCTYPE svg PUBLIC "-//W3C//DTD SVG 1.1//EN" "http://www.w3.org/Graphics/SVG/1.1/DTD/svg11.dtd">
<svg version="1.1" xmlns="http://www.w3.org/2000/svg" xmlns:xlink="http://www.w3.org/1999/xlink" x="0px" y="0px" viewBox="0 0 1000 1000" enable-background="new 0 0 1000 1000" xml:space="preserve">
<metadata> Svg Vector Icons : http://www.onlinewebfonts.com/icon </metadata>
<g><g transform="translate(0.000000,511.000000) scale(0.100000,-0.100000)"><path fill="#FFF" d="M4086.2,4289.2c-33.3-13.7-78.3-50.9-97.9-80.3c-33.3-52.8-35.2-203.6-41.1-3535.2l-3.9-3480.4h1057.1h1057v3455c0,3803.4,7.8,3550.9-121.4,3631.1c-62.6,37.2-95.9,39.2-925.9,39.2C4321.1,4316.6,4137.1,4310.8,4086.2,4289.2z"/><path fill="#FFF" d="M6828.7,1668.2l-66.6-66.6V-602.5v-2204.1h1047.3h1047.3v2182.6c0,1900.7-3.9,2192.4-29.4,2241.3c-62.6,121.4-29.4,117.5-1023.8,117.5h-908.3L6828.7,1668.2z"/><path fill="#FFF" d="M1267.5,305.7c-129.2-78.3-123.3-2-123.3-1634.5v-1477.9h1047.3h1047.3v1497.5c0,1380-2,1503.3-33.3,1550.3c-66.6,101.8-92,103.7-1017.9,103.7C1371.2,344.9,1326.2,342.9,1267.5,305.7z"/><path fill="#FFF" d="M259.4-3511.4c-217.3-115.5-211.4-440.4,11.7-546.2l82.2-41.1h4647.1h4647.1l82.2,41.1c227.1,109.6,227.1,444.4,0,548.1c-78.3,35.3-238.8,37.2-4739.1,35.3C425.7-3474.2,329.8-3474.2,259.4-3511.4z"/></g></g>
</svg>
