<?xml version="1.0" encoding="utf-8"?>
<!-- Svg Vector Icons : http://www.onlinewebfonts.com/icon -->
<!DOCTYPE svg PUBLIC "-//W3C//DTD SVG 1.1//EN" "http://www.w3.org/Graphics/SVG/1.1/DTD/svg11.dtd">
<svg version="1.1" xmlns="http://www.w3.org/2000/svg" xmlns:xlink="http://www.w3.org/1999/xlink" x="0px" y="0px" viewBox="0 0 1000 1000" enable-background="new 0 0 1000 1000" xml:space="preserve">
<metadata> Svg Vector Icons : http://www.onlinewebfonts.com/icon </metadata>
<g><g><path fill="#FFF" d="M687.4,339.9c13.7,0,20.6-9.1,20.6-27.3c0-18.3-6.8-27.4-20.4-27.4c-6.8,0-12,2.3-15.5,6.9c-3.5,4.6-5.2,11.4-5.2,20.5c0,9,1.7,15.9,5.2,20.4C675.4,337.6,680.6,339.9,687.4,339.9z"/><path fill="#FFF" d="M777.5,305.4c2.6-1.8,3.9-4.6,3.9-8.5c0-3.8-1.3-6.6-4-8.2c-2.6-1.6-6.7-2.4-12.3-2.4h-5.2v21.9h5.5C770.9,308.1,774.9,307.2,777.5,305.4z"/><path fill="#FFF" d="M990,239.8v-72H10v72h24.2v520.4H10v72h980v-72h-24.2V239.8H990z M817.7,272.2h46.7v14.1h-29.5V304h27.4v14.1h-27.4V339h29.5v14.2h-46.7V272.2z M742.8,272.2h23.6c11,0,19.2,2,24.4,6c5.3,4,7.9,10.1,7.9,18.3c0,4.8-1.3,9-3.9,12.7c-2.6,3.7-6.3,6.6-11.1,8.7c12.2,18.2,20.1,30,23.8,35.3h-19.1l-19.3-31.1h-9.1v31.1h-17.2L742.8,272.2L742.8,272.2z M658.9,281.5c6.7-7.1,16.2-10.7,28.7-10.7c12.4,0,22,3.6,28.6,10.7c6.6,7.2,9.9,17.5,9.9,30.9c0,13.4-3.3,23.7-10,30.9c-6.7,7.2-16.2,10.8-28.6,10.8c-12.4,0-21.9-3.6-28.6-10.8c-6.7-7.2-10-17.5-10-31C648.8,299,652.2,288.7,658.9,281.5z M578.8,272.2H640v14.3h-22v66.7h-17.2v-66.7h-22V272.2L578.8,272.2z M317.9,760.2H132.6V400.3h185.3V760.2z M394.8,405.4h118.8v222.4H394.8V405.4z M429.5,743.9c-15.4,0-27.8-12.4-27.8-27.8s12.4-27.8,27.8-27.8c15.4,0,27.8,12.4,27.8,27.8S444.9,743.9,429.5,743.9z M528.3,743.9c-15.4,0-27.8-12.4-27.8-27.8s12.4-27.8,27.8-27.8c15.4,0,27.8,12.4,27.8,27.8S543.7,743.9,528.3,743.9z M564.2,347.9c-5.3,4.2-12.6,6.3-22,6.3c-8.6,0-16.3-1.6-22.9-4.9v-16c5.5,2.4,10.1,4.2,13.9,5.2c3.8,1,7.3,1.5,10.4,1.5c3.8,0,6.7-0.7,8.7-2.2c2-1.4,3-3.6,3-6.4c0-1.6-0.4-3-1.3-4.2c-0.9-1.2-2.2-2.4-3.9-3.6c-1.7-1.1-5.2-3-10.5-5.5c-5-2.3-8.7-4.6-11.1-6.7c-2.5-2.1-4.5-4.6-5.9-7.5c-1.5-2.8-2.2-6.2-2.2-10c0-7.2,2.4-12.8,7.3-16.9c4.9-4.1,11.6-6.1,20.1-6.1c4.2,0,8.2,0.5,12,1.5c3.8,1,7.8,2.4,12,4.2l-5.5,13.4c-4.3-1.8-7.9-3-10.7-3.7c-2.8-0.7-5.6-1.1-8.3-1.1c-3.3,0-5.7,0.8-7.5,2.3c-1.7,1.5-2.6,3.5-2.6,5.9c0,1.5,0.4,2.8,1.1,4c0.7,1.1,1.8,2.2,3.4,3.3c1.5,1.1,5.2,2.9,10.9,5.7c7.6,3.6,12.8,7.3,15.6,10.9c2.8,3.6,4.2,8.1,4.2,13.4C572.1,338,569.4,343.7,564.2,347.9z M627.2,743.9c-15.4,0-27.8-12.4-27.8-27.8s12.4-27.8,27.8-27.8c15.3,0,27.8,12.4,27.8,27.8S642.5,743.9,627.2,743.9z M690.5,627.8H571.7V405.4h118.8V627.8z M726,743.9c-15.3,0-27.8-12.4-27.8-27.8s12.4-27.8,27.8-27.8c15.4,0,27.8,12.4,27.8,27.8S741.3,743.9,726,743.9z M824.8,743.9c-15.3,0-27.8-12.4-27.8-27.8s12.4-27.8,27.8-27.8s27.8,12.4,27.8,27.8S840.2,743.9,824.8,743.9z M867.4,627.8H748.6V405.4h118.8V627.8z"/></g><g></g><g></g><g></g><g></g><g></g><g></g><g></g><g></g><g></g><g></g><g></g><g></g><g></g><g></g><g></g></g>
</svg>
