<?xml version="1.0" encoding="utf-8"?>
<!-- Svg Vector Icons : http://www.onlinewebfonts.com/icon -->
<!DOCTYPE svg PUBLIC "-//W3C//DTD SVG 1.1//EN" "http://www.w3.org/Graphics/SVG/1.1/DTD/svg11.dtd">
<svg version="1.1" xmlns="http://www.w3.org/2000/svg" xmlns:xlink="http://www.w3.org/1999/xlink" x="0px" y="0px" viewBox="0 0 1000 1000" enable-background="new 0 0 1000 1000" xml:space="preserve">
<metadata> Svg Vector Icons : http://www.onlinewebfonts.com/icon </metadata>
<g><g transform="translate(0.000000,511.000000) scale(0.100000,-0.100000)"><path fill="#FFF" d="M282.3,3606c-70.8-30.6-134-99.5-160.8-170.3c-28.7-74.6-28.7-1732.1,0-1806.8c30.6-80.4,109.1-155,222-204.8c124.4-57.4,250.7-181.8,312-308.2c63.2-130.1,67-359.8,5.7-490c-63.2-139.7-166.5-239.2-321.5-313.9c-90-42.1-156.9-88-185.7-128.2l-44-63.2v-909.1v-909.1l45.9-65.1c91.9-128.2,134-135.9,780.9-135.9h578l5.8-645c5.7-641.2,5.7-646.9,51.7-719.6c23-40.2,76.6-90,118.7-109.1c72.7-38.3,122.5-38.3,4044.2-34.4l3971.5,5.7l51.7,40.2c28.7,21.1,70.8,63.2,91.9,91.9c38.3,51.7,40.2,78.5,45.9,907.2c3.8,470.8,0,884.3-5.7,918.7c-17.2,90-109.1,185.7-235.4,243.1c-134,61.3-239.2,160.8-306.2,287.1c-44,82.3-51.7,118.7-51.7,258.4c0,141.6,7.7,176.1,53.6,264.1c70.8,134,170.4,227.8,331.1,310.1c99.5,51.7,141.6,84.2,174.2,143.5l44,76.6l-5.7,884.3c-3.8,859.4-5.7,884.2-44,935.9c-21.1,28.7-63.2,70.8-91.9,91.9c-49.8,38.3-80.4,40.2-673.7,45.9l-620.1,5.7V2739c0,712-5.7,746.4-135.9,838.3l-65.1,45.9l-3961.9,3.8C1028.7,3630.9,330.1,3627.1,282.3,3606z M7852,2561v-459.4H4808.8c-2991.5,0-3045.1,0-3117.9-38.3c-42.1-21.1-95.7-68.9-118.7-109.1l-45.9-72.7l-5.7-836.4c-3.8-539.7,1.9-865.1,15.3-913c28.7-109.1,84.2-168.4,229.7-241.2c248.8-124.4,375.1-329.2,359.8-579.9c-13.4-231.6-141.6-411.5-371.3-520.6l-122.5-57.4h-459.4H712.9V-731v534l82.3,57.4c107.2,72.8,298.6,277.5,363.7,388.6c26.8,47.8,74.6,155,103.4,237.3c45.9,132.1,51.7,179.9,51.7,380.9s-5.7,246.9-49.8,369.4c-28.7,78.5-80.4,189.5-114.8,248.8c-72.7,122.5-289,348.3-377.1,394.3l-59.3,32.5v553.1v555.1h3569.6H7852V2561z M6290.3,1412.6c22.9-147.4,208.6-285.2,344.5-258.4c139.7,30.6,260.3,160.8,260.3,285.2v49.8h1196.2h1196.2V947.5V407.8l-118.7-86.1c-298.6-218.2-493.8-602.9-493.8-976.1s195.2-757.9,493.8-976.1l118.7-86.1v-539.7v-541.7H8091.3H6895.1v44c0,61.3-67,160.8-137.8,206.7c-49.8,30.6-88,36.4-178,32.5c-153.1-9.6-225.8-61.3-271.8-189.5l-34.4-93.8H4202.1H2129.3v541.7v541.7l55.5,32.5c189.5,112.9,409.6,390.5,497.6,631.6c44,122.5,49.8,164.6,49.8,396.2c-1.9,300.5-30.6,415.3-174.2,645c-84.2,134-260.3,315.8-371.3,382.8l-57.4,32.5v541.7v541.7H4204h2072.8L6290.3,1412.6z"/><path fill="#FFF" d="M6443.4,878.6c-183.8-112.9-210.5-331.1-57.4-478.5c147.4-143.5,390.4-103.4,478.5,82.3c65.1,137.8,21,302.4-101.5,386.6C6676.9,926.5,6531.4,932.2,6443.4,878.6z"/><path fill="#FFF" d="M6502.7,53.7c-135.9-42.1-239.2-212.5-212.4-352.2c15.3-82.3,103.3-189.5,183.7-222c78.5-32.5,231.6-15.3,300.5,34.5c168.4,120.6,151.2,415.3-30.6,509.1C6671.1,61.3,6569.7,72.8,6502.7,53.7z"/><path fill="#FFF" d="M6502.7-788.5c-135.9-42.1-239.2-212.5-212.4-352.2c15.3-82.3,103.3-189.5,183.7-222c78.5-32.5,231.6-15.3,300.5,34.5c168.4,120.6,151.2,415.3-30.6,509.1C6671.1-780.8,6569.7-769.3,6502.7-788.5z"/><path fill="#FFF" d="M6454.9-1672.7c-287.1-147.4-176.1-570.4,149.3-570.4c88.1,0,185.7,59.3,246.9,151.2c80.4,120.6,45.9,298.6-74.7,392.4C6678.8-1626.8,6564-1617.2,6454.9-1672.7z"/></g></g>
</svg>
